Hanif_Shallow_7_5_grf.mot
version=1
nRows=53
nColumns=19
inDegrees=yes
endheader
time	right_ground_force_vx	right_ground_force_vy	right_ground_force_vz	right_ground_force_px	right_ground_force_py	right_ground_force_pz	right_ground_torque_x	right_ground_torque_y	right_ground_torque_z	left_ground_force_vx	left_ground_force_vy	left_ground_force_vz	left_ground_force_px	left_ground_force_py	left_ground_force_pz	left_ground_torque_x	left_ground_torque_y	left_ground_torque_z
4.600000	8.595320	323.835000	65.999000	0.165221	0.000000	-1.451580	-17.439800	9.682640	-9.852580	-5.656320	297.022000	-64.499700	0.186406	0.000000	-0.971366	20.415800	-6.241480	-2.788850
4.605000	8.851000	324.391000	66.346500	0.164554	0.000000	-1.452570	-17.147200	9.621370	-10.108400	-5.949930	295.097000	-65.018400	0.186304	0.000000	-0.972274	20.558100	-6.203790	-2.780070
4.610000	8.875400	325.271000	66.380200	0.164539	0.000000	-1.452830	-17.105700	9.696130	-10.132300	-5.984950	294.465000	-64.315400	0.186851	0.000000	-0.972266	20.513300	-6.180850	-2.616120
4.615000	9.420910	325.035000	66.451100	0.164538	0.000000	-1.452130	-17.311700	9.725980	-10.123600	-6.274690	296.311000	-64.216000	0.187338	0.000000	-0.971631	20.457100	-6.092870	-2.514470
4.620000	9.218580	326.685000	66.462200	0.164680	0.000000	-1.452780	-17.192900	9.700900	-10.142400	-6.553040	295.518000	-64.191900	0.187505	0.000000	-0.972083	20.542500	-6.088210	-2.445870
4.625000	9.467410	325.411000	65.847600	0.164520	0.000000	-1.452810	-17.107800	9.695290	-10.158500	-7.044780	294.366000	-63.857600	0.187189	0.000000	-0.972408	20.570700	-6.155060	-2.507410
4.630000	8.854160	326.310000	65.816000	0.164920	0.000000	-1.452840	-17.160100	9.604510	-10.070400	-6.841910	293.805000	-63.482800	0.187395	0.000000	-0.971885	20.371400	-6.026650	-2.472190
4.635000	8.896200	326.337000	65.630200	0.164830	0.000000	-1.452570	-17.252800	9.556660	-10.115200	-6.866730	292.188000	-63.095300	0.188081	0.000000	-0.972038	20.308200	-6.069690	-2.231960
4.640000	9.028940	326.356000	65.646000	0.164578	0.000000	-1.452520	-17.269300	9.438960	-10.226400	-6.631420	292.049000	-63.016100	0.188237	0.000000	-0.972169	20.329800	-5.963680	-2.209570
4.645000	8.780040	326.465000	65.899700	0.164784	0.000000	-1.452720	-17.213100	9.503010	-10.141400	-7.063970	292.506000	-62.680600	0.188391	0.000000	-0.972676	20.519900	-6.000970	-2.160090
4.650000	8.894540	327.480000	65.526500	0.165068	0.000000	-1.452560	-17.319300	9.420170	-10.107700	-6.910930	290.265000	-62.368500	0.188726	0.000000	-0.972517	20.314500	-5.947210	-2.042350
4.655000	8.578440	327.600000	65.446200	0.164993	0.000000	-1.453090	-17.154900	9.510970	-10.116700	-7.138990	289.632000	-62.007100	0.188614	0.000000	-0.973167	20.462800	-5.898370	-2.078990
4.660000	8.774060	325.732000	65.238200	0.164991	0.000000	-1.452260	-17.327500	9.331210	-10.086600	-7.009510	288.899000	-61.772700	0.189070	0.000000	-0.972615	20.250000	-5.885920	-1.939120
4.665000	8.995130	325.327000	65.434300	0.164909	0.000000	-1.452470	-17.233800	9.337320	-10.096600	-7.262100	288.306000	-61.232800	0.189081	0.000000	-0.972931	20.304300	-5.832820	-1.943470
4.670000	8.780040	328.457000	65.581700	0.164897	0.000000	-1.452970	-17.239400	9.427700	-10.200200	-7.237020	286.853000	-61.325900	0.189518	0.000000	-0.974178	20.561400	-5.824290	-1.788780
4.675000	9.612210	327.563000	66.188000	0.164048	0.000000	-1.453000	-17.166200	9.478180	-10.445200	-7.517130	288.572000	-60.915900	0.190146	0.000000	-0.973055	20.363600	-5.742450	-1.647020
4.680000	10.285200	329.989000	66.013700	0.164881	0.000000	-1.452860	-17.330700	9.441140	-10.273500	-7.794630	286.196000	-60.452200	0.189819	0.000000	-0.973089	20.217200	-5.867650	-1.688910
4.685000	11.495200	328.924000	66.437300	0.164828	0.000000	-1.452090	-17.502600	9.565630	-10.234000	-7.709960	285.344000	-60.402900	0.190091	0.000000	-0.973846	20.371100	-5.809400	-1.608830
4.690000	11.388600	329.524000	66.287200	0.165049	0.000000	-1.452050	-17.547700	9.629150	-10.169700	-7.822780	284.795000	-60.423800	0.190529	0.000000	-0.973288	20.172800	-5.666720	-1.499910
4.695000	11.502300	330.634000	65.709200	0.165306	0.000000	-1.452190	-17.554300	9.680740	-10.123300	-7.814870	282.945000	-60.146600	0.190895	0.000000	-0.973514	20.109100	-5.697470	-1.364390
4.700000	10.411800	333.877000	65.932100	0.165059	0.000000	-1.452270	-17.731800	9.497060	-10.355900	-8.134590	283.547000	-59.759000	0.190840	0.000000	-0.974158	20.340400	-5.681910	-1.393030
4.705000	10.471500	332.868000	65.700200	0.165884	0.000000	-1.452310	-17.658400	9.551290	-10.024200	-8.880710	283.506000	-59.676900	0.191457	0.000000	-0.974394	20.419800	-5.596000	-1.217970
4.710000	10.028300	332.313000	65.883300	0.166026	0.000000	-1.451720	-17.833000	9.532870	-9.951540	-8.638030	283.423000	-59.499300	0.192295	0.000000	-0.974891	20.548400	-5.509310	-0.992978
4.715000	9.874220	333.169000	65.958700	0.166157	0.000000	-1.452450	-17.642800	9.476090	-9.946090	-8.808060	283.756000	-58.558100	0.192160	0.000000	-0.974046	20.335000	-5.478390	-1.059660
4.720000	9.627260	331.732000	65.777600	0.165502	0.000000	-1.452070	-17.698200	9.434240	-10.126200	-9.014970	283.747000	-58.948600	0.192550	0.000000	-0.973624	20.219000	-5.459250	-0.938595
4.725000	9.492830	330.539000	65.820500	0.165542	0.000000	-1.452190	-17.598100	9.340740	-10.083000	-9.258920	282.640000	-58.449300	0.193045	0.000000	-0.974760	20.468400	-5.431080	-0.789224
4.730000	8.945460	331.087000	65.479800	0.165797	0.000000	-1.452750	-17.445700	9.514060	-9.979740	-8.884390	282.487000	-58.495300	0.193304	0.000000	-0.974659	20.420200	-5.401650	-0.722222
4.735000	9.130880	333.677000	65.839600	0.166438	0.000000	-1.452610	-17.628400	9.537790	-9.849050	-8.919060	281.710000	-58.352000	0.193415	0.000000	-0.974885	20.430700	-5.424950	-0.678011
4.740000	9.173870	333.105000	65.809200	0.165960	0.000000	-1.452470	-17.640000	9.614200	-9.979010	-8.588330	280.734000	-58.460800	0.193896	0.000000	-0.975588	20.552100	-5.423310	-0.528754
4.745000	9.055770	336.532000	66.500600	0.165785	0.000000	-1.452750	-17.738700	9.450850	-10.191700	-9.044460	283.301000	-58.185100	0.193647	0.000000	-0.974422	20.412800	-5.325800	-0.649299
4.750000	8.838590	335.649000	67.201200	0.166602	0.000000	-1.452310	-17.841700	9.585250	-9.835390	-9.019950	285.555000	-58.642500	0.194791	0.000000	-0.974168	20.503800	-5.410750	-0.307126
4.755000	8.737710	338.714000	67.194500	0.166848	0.000000	-1.452240	-18.027900	9.681840	-9.843610	-8.813550	284.944000	-59.176700	0.194730	0.000000	-0.975824	20.929200	-5.438930	-0.303451
4.760000	8.568580	339.665000	67.344100	0.167549	0.000000	-1.452410	-18.027000	9.605130	-9.642290	-8.771980	286.008000	-60.129600	0.195659	0.000000	-0.975304	20.854900	-5.341320	-0.040200
4.765000	9.280370	340.600000	67.899600	0.167527	0.000000	-1.452790	-17.934800	9.674600	-9.669610	-9.111560	286.247000	-60.796700	0.196017	0.000000	-0.975308	20.881200	-5.338850	0.082258
4.770000	9.059610	340.667000	67.968800	0.167107	0.000000	-1.452550	-18.022700	9.680810	-9.816690	-8.925240	287.397000	-60.624600	0.196193	0.000000	-0.975674	21.066600	-5.384330	0.129686
4.775000	8.730900	342.046000	67.895100	0.167490	0.000000	-1.451350	-18.512700	9.797290	-9.707900	-8.600410	287.717000	-61.136100	0.196566	0.000000	-0.975697	21.087300	-5.309630	0.228529
4.780000	8.798150	341.857000	68.247900	0.167897	0.000000	-1.451730	-18.370100	9.744860	-9.562050	-9.078010	287.139000	-60.942600	0.197251	0.000000	-0.975953	21.130900	-5.306010	0.441847
4.785000	8.837100	343.381000	68.142500	0.168328	0.000000	-1.451520	-18.517800	9.998630	-9.415340	-9.076850	287.176000	-61.654300	0.196309	0.000000	-0.976283	21.224400	-5.235790	0.158040
4.790000	8.952060	345.560000	68.507200	0.168180	0.000000	-1.451800	-18.540300	9.975720	-9.546410	-9.236960	287.183000	-61.105500	0.197465	0.000000	-0.975903	21.123500	-5.297360	0.509470
4.795000	8.445300	347.488000	68.890700	0.168490	0.000000	-1.451850	-18.640300	9.932440	-9.501130	-9.582850	288.911000	-61.520000	0.197358	0.000000	-0.976576	21.450200	-5.288670	0.478366
4.800000	8.354380	346.363000	68.158600	0.168916	0.000000	-1.452300	-18.422200	9.872650	-9.328690	-9.817970	291.896000	-61.893700	0.198415	0.000000	-0.975120	21.249800	-5.285040	0.787203
4.805000	8.327140	347.216000	68.764200	0.168643	0.000000	-1.451800	-18.643000	9.986490	-9.426470	-10.046900	292.735000	-62.053800	0.198553	0.000000	-0.976320	21.666900	-5.288180	0.834440
4.810000	8.176370	349.027000	68.801900	0.169373	0.000000	-1.451420	-18.877000	9.957270	-9.230280	-10.370000	294.393000	-62.642800	0.199476	0.000000	-0.976449	21.833400	-5.246360	1.117170
4.815000	8.122360	349.620000	68.911800	0.168971	0.000000	-1.451570	-18.858000	9.996100	-9.386710	-10.208300	296.050000	-63.933100	0.199311	0.000000	-0.976804	22.057200	-5.308430	1.095620
4.820000	8.133960	351.942000	69.378400	0.169677	0.000000	-1.451680	-18.942600	10.136600	-9.175450	-9.943870	297.246000	-64.499500	0.200627	0.000000	-0.976573	22.072300	-5.300950	1.504010
4.825000	8.182470	353.699000	69.210900	0.170116	0.000000	-1.451430	-19.124700	10.153700	-9.075130	-9.352020	298.755000	-65.648500	0.200396	0.000000	-0.977594	22.473200	-5.280940	1.437900
4.830000	8.273780	353.368000	69.686100	0.170359	0.000000	-1.451100	-19.216300	10.330900	-8.933880	-9.747110	301.255000	-66.345000	0.201351	0.000000	-0.977023	22.497300	-5.292670	1.751200
4.835000	8.431310	357.094000	70.141900	0.170851	0.000000	-1.451030	-19.444900	10.298400	-8.878790	-9.644840	302.355000	-66.136900	0.201590	0.000000	-0.976678	22.471300	-5.274750	1.812830
4.840000	8.084760	358.352000	70.591100	0.170765	0.000000	-1.450490	-19.714900	10.350700	-8.932290	-10.810300	307.631000	-66.280900	0.202068	0.000000	-0.976374	22.788000	-5.209560	1.959080
4.845000	8.183530	360.614000	70.658300	0.171719	0.000000	-1.450600	-19.799800	10.339400	-8.653080	-10.994500	305.349000	-66.629400	0.202882	0.000000	-0.977693	23.034600	-5.300250	2.257820
4.850000	7.973460	360.680000	70.789900	0.172020	0.000000	-1.450200	-19.949900	10.401800	-8.526380	-10.529500	305.773000	-66.780100	0.203257	0.000000	-0.977858	23.105000	-5.248170	2.361600
4.855000	8.267720	361.955000	71.403800	0.172276	0.000000	-1.449810	-20.154700	10.451700	-8.455130	-11.137400	308.622000	-67.686100	0.203113	0.000000	-0.977782	23.308500	-5.306440	2.353510
4.860000	8.445620	365.359000	71.664200	0.172580	0.000000	-1.449470	-20.468500	10.467700	-8.444170	-11.298200	312.407000	-68.267600	0.203645	0.000000	-0.976944	23.328900	-5.225550	2.517520
